<?xml version="1.0" encoding="UTF-8" standalone="no"?>
<!-- Created with Inkscape (http://www.inkscape.org/) -->

<svg
   xmlns:dc="http://purl.org/dc/elements/1.1/"
   xmlns:cc="http://creativecommons.org/ns#"
   xmlns:rdf="http://www.w3.org/1999/02/22-rdf-syntax-ns#"
   xmlns:svg="http://www.w3.org/2000/svg"
   xmlns="http://www.w3.org/2000/svg"
   xmlns:sodipodi="http://sodipodi.sourceforge.net/DTD/sodipodi-0.dtd"
   xmlns:inkscape="http://www.inkscape.org/namespaces/inkscape"
   id="svg4355"
   height="35.876mm"
   width="112.89mm"
   version="1.1"
   viewBox="0 0 399.99999 127.11864"
   sodipodi:docname="logo_siga_horizontal_white.svg"
   inkscape:version="0.92.1 r15371">
  <defs
     id="defs4558" />
  <sodipodi:namedview
     pagecolor="#ffffff"
     bordercolor="#666666"
     borderopacity="1"
     objecttolerance="10"
     gridtolerance="10"
     guidetolerance="10"
     inkscape:pageopacity="0"
     inkscape:pageshadow="2"
     inkscape:window-width="1920"
     inkscape:window-height="1017"
     id="namedview4556"
     showgrid="false"
     inkscape:zoom="3.2976238"
     inkscape:cx="213.33543"
     inkscape:cy="67.797164"
     inkscape:window-x="1912"
     inkscape:window-y="-8"
     inkscape:window-maximized="1"
     inkscape:current-layer="g12" />
  <metadata
     id="metadata4360">
    <rdf:RDF>
      <cc:Work
         rdf:about="">
        <dc:format>image/svg+xml</dc:format>
        <dc:type
           rdf:resource="http://purl.org/dc/dcmitype/StillImage" />
        <dc:title></dc:title>
      </cc:Work>
    </rdf:RDF>
  </metadata>
  <g
     id="layer1"
     transform="translate(-167.95 -474.91)">
    <g
       id="g5029"
       transform="matrix(.53756 0 0 .53756 189.79 210.82)">
      <g
         id="g12"
         transform="matrix(.125 0 0 -.125 -42.91 992.5)">
        <g
           fill="#1c2f53"
           id="g4491"
           style="fill:#f9f9f9">
          <path
             id="path14"
             d="m3150.6 2865.9c-18.06-30.45-44.83-54.86-80.28-73.26-35.47-18.39-78.61-27.58-129.44-27.58-50.17 0-95 8.52-134.46 25.58-39.48 17.06-71.09 41.64-94.83 73.75-23.75 32.11-37.29 69.57-40.63 112.38h150.52c3.34-28.76 14.87-52.67 34.61-71.73 19.72-19.08 45.98-28.61 78.77-28.61 29.43 0 52.01 7.85 67.73 23.59 15.71 15.7 23.58 35.94 23.58 60.7 0 22.08-6.36 40.29-19.06 54.69-12.71 14.37-28.77 25.92-48.16 34.62-19.42 8.68-46.17 18.72-80.28 30.1-44.16 14.71-80.28 29.26-108.38 43.65-28.09 14.38-52.02 35.27-71.73 62.71-19.75 27.42-29.6 63.22-29.6 107.37 0 60.86 21.89 108.87 65.72 143.99 43.8 35.12 101.84 52.68 174.09 52.68 74.91 0 134.62-18.06 179.11-54.18 44.48-36.13 69.74-84.29 75.76-144.5h-152.52c-4.01 25.42-14.72 46.32-32.11 62.72-17.4 16.38-41.14 24.58-71.25 24.58-26.08 0-47.15-6.87-63.21-20.57-16.05-13.72-24.08-33.61-24.08-59.7 0-20.75 6.18-37.97 18.56-51.68 12.38-13.72 28.1-24.93 47.16-33.61 19.06-8.71 44.98-18.41 77.77-29.11 45.48-16.05 82.44-31.1 110.87-45.15 28.43-14.04 52.69-35.12 72.76-63.21 20.07-28.1 30.1-64.9 30.1-110.38 0-36.12-9.03-69.41-27.09-99.84"
             style="fill:#f9f9f9" />
          <path
             id="path16"
             d="m3282 2772h141.49v708.42h-141.49v-708.42z"
             style="fill:#f9f9f9" />
          <path
             id="path18"
             d="m4094.8 3423.8c56.85-42.49 93.32-99.85 109.37-172.09h-148.51c-14.04 32.11-36.29 57.69-66.72 76.76-30.45 19.06-66.4 28.6-107.87 28.6-40.82 0-76.94-9.38-108.37-28.1-31.45-18.73-55.86-45.5-73.26-80.28-17.4-34.79-26.08-75.6-26.08-122.41 0-74.26 19.89-132.12 59.71-173.6 39.78-41.48 94.15-62.2 163.05-62.2 50.83 0 94.48 15.04 130.95 45.14 36.45 30.11 60.03 71.91 70.74 125.44h-239.82v101.34h358.22v-136.47c-10.03-46.83-29.6-89.98-58.7-129.44-29.09-39.47-67.23-71.08-114.38-94.82-47.17-23.75-101.2-35.63-162.06-35.63-69.58 0-130.95 15.22-184.13 45.67-53.18 30.43-94.32 72.9-123.42 127.43-29.11 54.51-43.65 116.9-43.65 187.14s14.54 132.61 43.65 187.14c29.1 54.51 70.06 97.16 122.92 127.93 52.84 30.77 114.05 46.16 183.63 46.16 86.29 0 157.86-21.24 214.73-63.71"
             style="fill:#f9f9f9" />
          <path
             id="path20"
             d="m4405.8 3207.5h193.66v-82.28h-296v77.26l126.42 87.3c19.4 13.37 34.12 26.92 44.15 40.64 10.04 13.7 15.06 28.59 15.06 44.65 0 12.04-3.51 21.07-10.54 27.09-7.02 6.02-15.89 9.03-26.59 9.03-28.09 0-43.82-18.73-47.16-56.19h-106.36c2.66 38.79 18.56 70.57 47.66 95.32 29.09 24.74 68.73 37.13 118.91 37.13 44.15 0 77.76-10.03 100.84-30.1s34.62-44.82 34.62-74.25c0-26.09-9.38-49.17-28.1-69.24-18.73-20.07-49.17-41.14-91.31-63.22l-75.26-43.14"
             style="fill:#f9f9f9" />
          <path
             id="path22"
             d="m5091.1 3021.9-104.35 299.02-104.36-299.02h208.71zm38.14-107.36h-283.98l-50.16-142.49h-149.52l260.89 700.39h161.56l259.89-700.39h-149.51l-49.17 142.49"
             style="fill:#f9f9f9" />
        </g>
        <path
           id="path24"
           d="m2282.4 2817.6-929.87 991.23c-67.27 71.7-186.93 43.7-215.39-50.41l-393.47-1300.8c-28.465-94.11 55.613-183.74 151.35-161.33l1323.4 309.68c95.73 22.41 131.31 140.04 64.04 211.74"
           fill="#72c22c" />
        <path
           id="path26"
           d="m2366.3 2803.8-1022.3 1089.7c-73.95 78.83-205.51 48.05-236.8-55.41l-432.62-1430.2c-31.285-103.47 61.152-202 166.4-177.38l1454.9 340.48c105.24 24.63 144.36 153.96 70.41 232.79z"
           stroke="#72c22c"
           stroke-miterlimit="10"
           stroke-width="13.942"
           fill="none" />
        <path
           id="path28"
           d="m2257 2708.8-792.69 1104c-57.35 79.87-179.64 67.71-220.13-21.88l-559.82-1238.5c-40.488-89.59 31.191-189.42 129.02-179.69l1352.4 134.49c97.84 9.73 148.46 121.71 91.11 201.58"
           fill="#1c2f53" />
        <path
           id="path30"
           d="m2218.3 2605.9c25.33 5.93 46.4 18.57 62.51 35.22-1.18 23.13-8.73 46.51-23.9 67.64l-416.21 579.66-488.23 520.45c-17.8 18.97-39.28 30.89-61.75 36.53-19.44-12.6-35.92-30.82-46.63-54.52l-293.87-650.3-206.6-683c-7.531-24.9-7.121-49.46-0.762-71.73 20.625-10.55 44.649-15.71 70.527-13.13l710.11 70.62 694.83 162.59"
           fill="#2e4d97" />
        <g
           fill="#fff"
           id="g4501">
          <path
             id="path32"
             d="m1585.4 2752.2c3.97 0 7.91-1.53 10.87-4.5l24.85-24.84 68.87 68.86-24.77 24.79c-5.04 5.04-5.94 12.88-2.19 18.94 14.69 23.76 25.41 49.64 31.83 76.94 1.63 6.93 7.82 11.83 14.95 11.83h35.09v97.45h-35.07c-7.13 0-13.32 4.9-14.96 11.84-6.4 27.3-17.12 53.18-31.82 76.93-3.75 6.05-2.85 13.9 2.19 18.94l24.77 24.78-68.87 68.88-24.78-24.77c-5.02-5.02-12.87-5.95-18.94-2.2-23.79 14.71-49.68 25.42-76.93 31.84-6.95 1.63-11.85 7.82-11.85 14.95v35.09h-97.42v-35.07c0-7.13-4.9-13.32-11.85-14.95-27.28-6.43-53.17-17.13-76.92-31.84-6.07-3.76-13.92-2.83-18.95 2.2l-24.78 24.77-68.87-68.87 24.77-24.78c5.03-5.04 5.95-12.88 2.2-18.94-14.71-23.79-25.41-49.68-31.84-76.94-1.63-6.94-7.82-11.84-14.95-11.84h-35.11v-97.42h35.07c7.13 0 13.32-4.9 14.96-11.84 6.41-27.3 17.12-53.18 31.83-76.93 3.75-6.05 2.84-13.9-2.2-18.94l-24.77-24.79 68.87-68.86 24.84 24.83c4.99 4.99 12.77 5.94 18.8 2.29l0.72-0.42 12.69 23.78c2.67 5.01 7.88 8.14 13.56 8.14h0.02l9.81-0.01v35.41c-52.91 34.18-85.42 93.3-85.42 156.41 0 102.68 83.54 186.22 186.21 186.22 102.68 0 186.21-83.54 186.21-186.22 0-63.11-32.51-122.23-85.42-156.41v-35.26l10.19 0.01h0.01c5.64 0 10.83-3.1 13.51-8.06l12.84-23.76c0.07 0.05 0.14 0.09 0.22 0.14 2.46 1.48 5.2 2.2 7.93 2.2zm35.72-66.43c-3.93 0-7.86 1.49-10.86 4.5l-27.36 27.35c-1.44-0.8-2.89-1.61-4.39-2.41-3.58-1.93-7.77-2.37-11.69-1.21-3.9 1.17-7.19 3.84-9.13 7.42l-15.95 29.52-16.39-0.01h-0.01c-4.07 0-7.98 1.61-10.86 4.5-2.88 2.88-4.5 6.79-4.5 10.86v59.24c0 5.48 2.92 10.55 7.66 13.29 47.96 27.8 77.76 79.34 77.76 134.52 0 85.74-69.76 155.49-155.49 155.49s-155.49-69.75-155.49-155.49c0-55.18 29.8-106.72 77.77-134.52 4.73-2.74 7.65-7.81 7.65-13.29v-59.39c0-4.08-1.62-7.99-4.5-10.87s-6.79-4.49-10.86-4.49h-0.02l-15.97 0.02-15.75-29.53c-1.91-3.61-5.18-6.29-9.08-7.48-3.9-1.2-8.11-0.78-11.71 1.15-1.71 0.92-3.39 1.82-5.04 2.74l-27.37-27.36c-6-6.02-15.72-6.02-21.72 0l-90.59 90.59c-6.01 6-6.01 15.73-0.01 21.72l27.21 27.23c-11.3 20.09-20.12 41.43-26.35 63.69h-38.52c-8.49 0-15.36 6.88-15.36 15.36v128.14c0 8.48 6.87 15.36 15.36 15.36h38.56c6.23 22.23 15.06 43.57 26.35 63.69l-27.22 27.23c-5.99 6-5.99 15.72 0.01 21.72l90.6 90.6c5.99 5.99 15.71 6.01 21.72 0l27.23-27.21c20.09 11.29 41.43 20.12 63.69 26.35v38.52c0 8.48 6.87 15.36 15.36 15.36h128.14c8.49 0 15.36-6.88 15.36-15.36v-38.54c22.24-6.23 43.58-15.06 63.69-26.35l27.23 27.21c6 6.01 15.72 5.99 21.72 0l90.6-90.6c6-6 6-15.72 0.01-21.72l-27.22-27.23c11.3-20.1 20.13-41.43 26.35-63.69h38.52c8.49 0 15.36-6.88 15.36-15.36v-128.17c0-8.48-6.87-15.36-15.36-15.36h-38.54c-6.23-22.25-15.06-43.58-26.35-63.68l27.22-27.24c5.99-5.99 5.99-15.72-0.01-21.72l-90.6-90.59c-3-3.01-6.92-4.5-10.86-4.5" />
          <path
             id="path34"
             d="m1480.6 2743.3h-85.98c-8.49 0-15.36 6.87-15.36 15.36s6.87 15.36 15.36 15.36h85.98c8.48 0 15.36-6.87 15.36-15.36s-6.88-15.36-15.36-15.36" />
          <path
             id="path36"
             d="m1480.6 2680.5h-85.98c-8.49 0-15.36 6.88-15.36 15.37 0 8.48 6.87 15.36 15.36 15.36h85.98c8.48 0 15.36-6.88 15.36-15.36 0-8.49-6.88-15.37-15.36-15.37" />
          <path
             id="path38"
             d="m1464.3 2628h-53.44c-6.69 0-12.11 5.42-12.11 12.11s5.42 12.11 12.11 12.11h53.44c6.69 0 12.11-5.42 12.11-12.11s-5.42-12.11-12.11-12.11" />
        </g>
      </g>
      <rect
         id="rect4258"
         height="236.47"
         width="744.1"
         y="491.27"
         x="-40.621"
         fill="none" />
    </g>
  </g>
</svg>
